<svg width="44" height="43" viewBox="0 0 44 43" fill="none" xmlns="http://www.w3.org/2000/svg">
<path d="M38.3205 23.7361C37.8362 23.7361 37.3299 23.5851 36.8456 23.4772C35.8657 23.2624 34.9021 22.9812 33.9618 22.6356C32.9406 22.2714 31.8181 22.2904 30.8102 22.6887C29.8023 23.0871 28.9804 23.8367 28.5025 24.7935L28.0182 25.7861C25.8803 24.5975 23.9053 23.1473 22.1406 21.4704C20.4298 19.7406 18.9504 17.8046 17.7379 15.709L18.7505 15.2559C19.7265 14.7874 20.4913 13.9817 20.8977 12.9938C21.3041 12.0058 21.3234 10.9055 20.9519 9.90444C20.6023 8.97448 20.3155 8.02298 20.0933 7.0561C19.9833 6.58138 19.8952 6.08508 19.8292 5.61036C19.5618 4.09042 18.7497 2.71399 17.5389 1.72894C16.3282 0.743883 14.7984 0.214939 13.2251 0.237361H6.59906C5.66843 0.236166 4.74805 0.427785 3.89826 0.799656C3.04847 1.17153 2.28845 1.71525 1.66803 2.39519C1.03475 3.09358 0.563206 3.91808 0.28581 4.81204C0.00841326 5.70599 -0.0682644 6.64822 0.0610446 7.57398C1.25767 16.5552 5.44381 24.8984 11.9704 31.3101C18.5113 37.7076 27.0229 41.811 36.1852 42.984C36.471 43.0054 36.758 43.0054 37.0437 42.984C38.667 42.9863 40.2344 42.4025 41.4464 41.344C42.1401 40.7359 42.6948 39.9909 43.0741 39.1579C43.4535 38.3249 43.649 37.4227 43.6478 36.5105V30.037C43.6359 28.546 43.0993 27.1047 42.1287 25.9567C41.1581 24.8087 39.8129 24.0243 38.3205 23.7361ZM39.3992 36.6831C39.3984 36.9842 39.3334 37.2818 39.2083 37.5568C39.0832 37.8318 38.9008 38.0781 38.6727 38.2799C38.4315 38.4954 38.1443 38.6555 37.8321 38.7488C37.5199 38.8421 37.1905 38.8662 36.8676 38.8193C28.6528 37.7677 21.0185 34.098 15.1403 28.3755C9.25712 22.6086 5.48084 15.0991 4.39771 7.01294C4.34988 6.69647 4.37445 6.37352 4.46963 6.0675C4.56482 5.76147 4.72823 5.48002 4.94804 5.24352C5.15634 5.01728 5.41116 4.83685 5.69573 4.71411C5.9803 4.59138 6.28816 4.52912 6.59906 4.53144H13.2031C13.712 4.51925 14.2094 4.6803 14.6108 4.98717C15.0122 5.29405 15.2926 5.72778 15.4045 6.21455C15.4045 6.79716 15.6026 7.40135 15.7347 7.98397C15.9891 9.11437 16.3275 10.225 16.7473 11.307L13.6654 12.7312C13.1357 12.9696 12.724 13.4041 12.5207 13.9396C12.3005 14.4649 12.3005 15.0542 12.5207 15.5795C15.6889 22.2316 21.1439 27.5788 27.9301 30.6843C28.4661 30.9001 29.0672 30.9001 29.6032 30.6843C30.1494 30.485 30.5928 30.0815 30.8359 29.5623L32.2228 26.5413C33.3585 26.9472 34.5204 27.2788 35.7009 27.5339C36.2733 27.6634 36.8896 27.7713 37.484 27.8576C37.9806 27.9672 38.4231 28.2421 38.7361 28.6355C39.0492 29.029 39.2135 29.5166 39.2011 30.0154L39.3992 36.6831ZM26.4112 0C25.9049 0 25.3766 0 24.8703 0C24.2864 0.0486448 23.7462 0.322639 23.3685 0.761708C22.9907 1.20078 22.8064 1.76895 22.856 2.34124C22.9057 2.91354 23.1852 3.44306 23.6331 3.81334C24.081 4.18361 24.6607 4.3643 25.2445 4.31566H26.4112C29.9142 4.31566 33.2737 5.67971 35.7507 8.10774C38.2277 10.5358 39.6193 13.8289 39.6193 17.2626C39.6193 17.651 39.6193 18.0179 39.6193 18.4063C39.5705 18.9755 39.754 19.5405 40.1295 19.9774C40.505 20.4143 41.0419 20.6873 41.6225 20.7367H41.7986C42.3497 20.7389 42.8816 20.5384 43.2892 20.1749C43.6968 19.8113 43.9504 19.3111 44 18.7731C44 18.2768 44 17.7589 44 17.2626C44 12.688 42.1476 8.30048 38.8497 5.06373C35.5518 1.82698 31.0781 0.00571825 26.4112 0ZM30.8139 17.2626C30.8139 17.8349 31.0458 18.3838 31.4587 18.7884C31.8715 19.1931 32.4314 19.4205 33.0153 19.4205C33.5991 19.4205 34.159 19.1931 34.5719 18.7884C34.9847 18.3838 35.2166 17.8349 35.2166 17.2626C35.2166 14.9735 34.2889 12.7781 32.6376 11.1594C30.9862 9.54068 28.7465 8.63132 26.4112 8.63132C25.8274 8.63132 25.2675 8.85866 24.8546 9.26333C24.4418 9.668 24.2099 10.2169 24.2099 10.7891C24.2099 11.3614 24.4418 11.9103 24.8546 12.315C25.2675 12.7196 25.8274 12.947 26.4112 12.947C27.5789 12.947 28.6987 13.4017 29.5244 14.211C30.3501 15.0203 30.8139 16.118 30.8139 17.2626Z" fill="white"/>
</svg>
