<svg width="38" height="38" viewBox="0 0 38 38" fill="none" xmlns="http://www.w3.org/2000/svg">
<path d="M15.352 16.834C15.447 16.207 15.656 15.656 15.922 15.181C16.188 14.706 16.568 14.307 17.043 14.003C17.499 13.718 18.069 13.585 18.772 13.566C19.209 13.585 19.608 13.661 19.969 13.813C20.349 13.984 20.691 14.212 20.957 14.497C21.223 14.782 21.432 15.124 21.603 15.504C21.774 15.884 21.85 16.302 21.869 16.72H25.27C25.232 15.827 25.061 15.01 24.738 14.269C24.415 13.528 23.978 12.882 23.408 12.35C22.838 11.818 22.154 11.4 21.356 11.096C20.558 10.792 19.684 10.659 18.715 10.659C17.48 10.659 16.397 10.868 15.485 11.305C14.573 11.742 13.813 12.312 13.205 13.053C12.597 13.794 12.141 14.649 11.856 15.637C11.571 16.625 11.4 17.651 11.4 18.753V19.266C11.4 20.368 11.552 21.394 11.837 22.382C12.122 23.37 12.578 24.225 13.186 24.947C13.794 25.669 14.554 26.258 15.466 26.676C16.378 27.094 17.461 27.322 18.696 27.322C19.589 27.322 20.425 27.17 21.204 26.885C21.983 26.6 22.667 26.201 23.256 25.688C23.845 25.175 24.32 24.586 24.662 23.902C25.004 23.218 25.213 22.496 25.232 21.717H21.831C21.812 22.116 21.717 22.477 21.546 22.819C21.375 23.161 21.147 23.446 20.862 23.693C20.577 23.94 20.254 24.13 19.874 24.263C19.513 24.396 19.133 24.434 18.734 24.453C18.05 24.434 17.48 24.301 17.043 24.016C16.568 23.712 16.188 23.313 15.922 22.838C15.656 22.363 15.447 21.793 15.352 21.166C15.257 20.539 15.2 19.893 15.2 19.266V18.753C15.2 18.088 15.257 17.461 15.352 16.834ZM19 0C8.512 0 0 8.512 0 19C0 29.488 8.512 38 19 38C29.488 38 38 29.488 38 19C38 8.512 29.488 0 19 0ZM19 34.2C10.621 34.2 3.8 27.379 3.8 19C3.8 10.621 10.621 3.8 19 3.8C27.379 3.8 34.2 10.621 34.2 19C34.2 27.379 27.379 34.2 19 34.2Z" fill="white"/>
</svg>
