<svg width="44" height="43" viewBox="0 0 44 43" fill="none" xmlns="http://www.w3.org/2000/svg">
<path d="M14.6684 21.5C14.6684 17.5421 17.9508 14.3328 22.0009 14.3328C26.051 14.3328 29.3351 17.5421 29.3351 21.5C29.3351 25.4579 26.051 28.6672 22.0009 28.6672C17.9508 28.6672 14.6684 25.4579 14.6684 21.5ZM10.7037 21.5C10.7037 27.5975 15.7614 32.54 22.0009 32.54C28.2404 32.54 33.2981 27.5975 33.2981 21.5C33.2981 15.4025 28.2404 10.46 22.0009 10.46C15.7614 10.46 10.7037 15.4025 10.7037 21.5ZM31.1051 10.0223C31.1051 11.4464 32.2869 12.603 33.746 12.603C35.2032 12.603 36.3868 11.4464 36.3868 10.0223C36.3868 8.59826 35.205 7.44338 33.746 7.44338C32.2869 7.44338 31.1051 8.59826 31.1051 10.0223ZM13.1117 39.0004C10.9667 38.9049 9.80088 38.5559 9.02605 38.2606C7.99887 37.8699 7.26669 37.4044 6.49542 36.6525C5.72592 35.9005 5.24787 35.185 4.84979 34.1812C4.54768 33.424 4.19048 32.2847 4.09273 30.1886C3.98611 27.9222 3.96478 27.2414 3.96478 21.5C3.96478 15.7586 3.98788 15.0795 4.09273 12.8114C4.19048 10.7153 4.54946 9.57775 4.84979 8.81882C5.24965 7.81502 5.72592 7.09951 6.49542 6.3458C7.26491 5.59382 7.99709 5.12666 9.02605 4.73764C9.80088 4.44241 10.9667 4.09334 13.1117 3.99782C15.4308 3.89362 16.1275 3.87278 22.0009 3.87278C27.8761 3.87278 28.5709 3.89536 30.8919 3.99782C33.0369 4.09334 34.2009 4.44414 34.9775 4.73764C36.0047 5.12666 36.7369 5.59382 37.5081 6.3458C38.2776 7.09778 38.7539 7.81502 39.1538 8.81882C39.4559 9.57601 39.8131 10.7153 39.9108 12.8114C40.0174 15.0795 40.0388 15.7586 40.0388 21.5C40.0388 27.2397 40.0174 27.9205 39.9108 30.1886C39.8131 32.2847 39.4541 33.424 39.1538 34.1812C38.7539 35.185 38.2776 35.9005 37.5081 36.6525C36.7386 37.4044 36.0047 37.8699 34.9775 38.2606C34.2027 38.5559 33.0369 38.9049 30.8919 39.0004C28.5727 39.1046 27.8761 39.1255 22.0009 39.1255C16.1275 39.1255 15.4308 39.1046 13.1117 39.0004ZM12.9304 0.13025C10.5881 0.234451 8.98873 0.597415 7.59013 1.12884C6.14354 1.67763 4.91732 2.41397 3.69288 3.6088C2.47021 4.80363 1.71671 6.00194 1.15514 7.41733C0.611333 8.78409 0.239913 10.3471 0.133285 12.636C0.0248798 14.9284 0 15.6613 0 21.5C0 27.3387 0.0248798 28.0716 0.133285 30.364C0.239913 32.6529 0.611333 34.2159 1.15514 35.5827C1.71671 36.9963 2.46844 38.1964 3.69288 39.3912C4.91555 40.586 6.14177 41.3206 7.59013 41.8712C8.99051 42.4026 10.5881 42.7655 12.9304 42.8697C15.278 42.9739 16.0262 43 22.0009 43C27.9774 43 28.7256 42.9757 31.0714 42.8697C33.4136 42.7655 35.013 42.4026 36.4116 41.8712C37.8582 41.3206 39.0845 40.586 40.3089 39.3912C41.5316 38.1964 42.2833 36.9963 42.8466 35.5827C43.3904 34.2159 43.7636 32.6529 43.8685 30.364C43.9751 28.0698 44 27.3387 44 21.5C44 15.6613 43.9751 14.9284 43.8685 12.636C43.7619 10.3471 43.3904 8.78409 42.8466 7.41733C42.2833 6.00367 41.5316 4.80537 40.3089 3.6088C39.0862 2.41397 37.8582 1.67763 36.4134 1.12884C35.013 0.597415 33.4136 0.232714 31.0731 0.13025C28.7273 0.0260501 27.9774 0 22.0027 0C16.0262 0 15.278 0.0243134 12.9304 0.13025Z" fill="white"/>
</svg>
