<svg width="44" height="43" viewBox="0 0 44 43" fill="none" xmlns="http://www.w3.org/2000/svg">
<path d="M22.0034 0C9.86277 0 0 9.632 0 21.4967C0 33.3614 9.86277 43 22.0034 43C34.144 43 44 33.3614 44 21.4967C44 9.632 34.144 0 22.0034 0ZM22.0034 1.65385C24.6703 1.65211 27.3114 2.16417 29.7756 3.16075C32.2398 4.15733 34.4789 5.61888 36.3647 7.4618C38.2505 9.30473 39.746 11.4929 40.7657 13.9011C41.7855 16.3093 42.3095 18.8904 42.3077 21.4967C42.3077 32.4667 33.2285 41.3428 22.0034 41.3428C10.7783 41.3428 1.69231 32.4667 1.69231 21.4967C1.69231 10.5267 10.7783 1.65385 22.0034 1.65385ZM11.6634 14.8978L22.0169 22.914L32.3518 14.8978H11.6634ZM10.1809 15.8604V28.1022H33.8191V15.867L22.5382 24.6208C22.3896 24.7358 22.2056 24.7983 22.0161 24.7983C21.8266 24.7983 21.6426 24.7358 21.494 24.6208L10.1809 15.8604Z" fill="white"/>
</svg>
