<svg width="44" height="43" viewBox="0 0 44 43" fill="none" xmlns="http://www.w3.org/2000/svg">
<path fill-rule="evenodd" clip-rule="evenodd" d="M37.5894 6.24884C33.4532 2.22138 27.9524 0.0022637 22.0919 0C10.0164 0 0.188527 9.5579 0.183694 21.3061C0.182083 25.0615 1.19094 28.7273 3.10801 31.9584L0 43L11.6138 40.0371C14.8137 41.7345 18.4164 42.629 22.0831 42.6306H22.0921C34.1663 42.6306 43.9951 33.0714 44 21.3231C44.0023 15.6298 41.7257 10.2763 37.5894 6.24884ZM22.0921 39.0318H22.0847C18.8173 39.0306 15.6125 38.1769 12.8168 36.5633L12.1519 36.1794L5.26014 37.9377L7.0997 31.4025L6.66669 30.7325C4.84395 27.9128 3.88121 24.6537 3.88264 21.3075C3.88663 11.5428 12.0553 3.5987 22.0993 3.5987C26.9629 3.60049 31.5349 5.44506 34.9728 8.79254C38.4107 12.14 40.303 16.5896 40.3011 21.3217C40.2969 31.0871 32.1284 39.0318 22.0921 39.0318ZM32.0802 25.7681C31.5327 25.5016 28.8414 24.2135 28.3396 24.0359C27.8379 23.8582 27.473 23.7694 27.108 24.3024C26.7431 24.8354 25.6941 26.0346 25.3746 26.3899C25.0554 26.7452 24.7361 26.7897 24.1886 26.5231C23.6413 26.2567 21.8775 25.6945 19.7865 23.8807C18.1593 22.469 17.0606 20.7254 16.7413 20.1925C16.422 19.6594 16.7073 19.3713 16.9814 19.1059C17.2276 18.8673 17.5288 18.4841 17.8025 18.1731C18.0761 17.8622 18.1674 17.6402 18.3498 17.2849C18.5323 16.9295 18.4411 16.6186 18.3042 16.3521C18.1674 16.0856 17.0726 13.4651 16.6164 12.3991C16.1721 11.361 15.7208 11.5014 15.3848 11.4852C15.0659 11.4697 14.7006 11.4664 14.3357 11.4664C13.9707 11.4664 13.3777 11.5997 12.8759 12.1327C12.3742 12.6657 10.9601 13.9537 10.9601 16.5742C10.9601 19.1947 12.9215 21.7263 13.1953 22.0817C13.4689 22.437 17.0552 27.8147 22.5465 30.1208C23.8525 30.6693 24.8722 30.9968 25.6671 31.2424C26.9785 31.6475 28.1719 31.5903 29.1151 31.4532C30.1668 31.3004 32.3538 30.1653 32.81 28.9216C33.2661 27.678 33.2661 26.612 33.1293 26.3899C32.9925 26.1679 32.6275 26.0346 32.0802 25.7681Z" fill="white"/>
</svg>
